<?xml version="1.0" encoding="UTF-8" standalone="no"?>
<!-- Created with Inkscape (http://www.inkscape.org/) -->

<svg
   xmlns:dc="http://purl.org/dc/elements/1.1/"
   xmlns:cc="http://creativecommons.org/ns#"
   xmlns:rdf="http://www.w3.org/1999/02/22-rdf-syntax-ns#"
   xmlns:svg="http://www.w3.org/2000/svg"
   xmlns="http://www.w3.org/2000/svg"
   xmlns:sodipodi="http://sodipodi.sourceforge.net/DTD/sodipodi-0.dtd"
   xmlns:inkscape="http://www.inkscape.org/namespaces/inkscape"
   version="1.1"
   id="svg2"
   xml:space="preserve"
   width="280.30557"
   height="90.768509"
   viewBox="0 0 280.30558 90.768509"
   sodipodi:docname="conflict-definition.svg"
   inkscape:version="0.92.5 (2060ec1f9f, 2020-04-08)"><metadata
     id="metadata8"><rdf:RDF><cc:Work
         rdf:about=""><dc:format>image/svg+xml</dc:format><dc:type
           rdf:resource="http://purl.org/dc/dcmitype/StillImage" /><dc:title></dc:title></cc:Work></rdf:RDF></metadata><defs
     id="defs6" /><sodipodi:namedview
     pagecolor="#ffffff"
     bordercolor="#666666"
     borderopacity="1"
     objecttolerance="10"
     gridtolerance="10"
     guidetolerance="10"
     inkscape:pageopacity="0"
     inkscape:pageshadow="2"
     inkscape:window-width="1916"
     inkscape:window-height="1125"
     id="namedview4"
     showgrid="false"
     inkscape:zoom="3.6426752"
     inkscape:cx="120.1046"
     inkscape:cy="38.574265"
     inkscape:window-x="1600"
     inkscape:window-y="54"
     inkscape:window-maximized="0"
     inkscape:current-layer="g10"
     fit-margin-top="0"
     fit-margin-left="0"
     fit-margin-right="0"
     fit-margin-bottom="0" /><g
     id="g10"
     inkscape:groupmode="layer"
     inkscape:label="ink_ext_XXXXXX"
     transform="matrix(1.3333333,0,0,-1.3333333,-0.71109133,90.866948)"><g
       id="g12"
       transform="scale(0.1)"><path
         d="M 319.496,338.996 V 168.922"
         style="fill:#87cfff;fill-opacity:1;fill-rule:evenodd;stroke:none"
         id="path14"
         inkscape:connector-curvature="0" /><path
         d="M 319.496,338.996 V 168.922"
         style="fill:none;stroke:#000000;stroke-width:4.72424984;stroke-linecap:butt;stroke-linejoin:miter;stroke-miterlimit:10;stroke-dasharray:none;stroke-opacity:1"
         id="path16"
         inkscape:connector-curvature="0" /><path
         d="M 1056.48,338.996 V 168.922"
         style="fill:#87cfff;fill-opacity:1;fill-rule:evenodd;stroke:none"
         id="path18"
         inkscape:connector-curvature="0" /><path
         d="M 1056.48,338.996 V 168.922"
         style="fill:none;stroke:#000000;stroke-width:4.72424984;stroke-linecap:butt;stroke-linejoin:miter;stroke-miterlimit:10;stroke-dasharray:none;stroke-opacity:1"
         id="path20"
         inkscape:connector-curvature="0" /><path
         d="M 1793.46,338.996 V 168.922"
         style="fill:#87cfff;fill-opacity:1;fill-rule:evenodd;stroke:none"
         id="path22"
         inkscape:connector-curvature="0" /><path
         d="M 1793.46,338.996 V 168.922"
         style="fill:none;stroke:#000000;stroke-width:4.72424984;stroke-linecap:butt;stroke-linejoin:miter;stroke-miterlimit:10;stroke-dasharray:none;stroke-opacity:1"
         id="path24"
         inkscape:connector-curvature="0" /><path
         d="m 102.813,183.41 -6.9302,-0.629 h -4.4101 l -3.1485,0.629 h -2.5195 l -5.668,-1.262 -10.082,-3.148 -7.5586,-3.777 -5.668,-2.52 -3.1484,-1.89 -1.2617,-1.262 -1.8867,-0.629 -2.5196,-2.52 -5.039,-4.41 -6.9297,-6.929 -6.3008,-7.559 -4.4102,-5.668 -3.1484,-2.52 -1.2578,-1.89 -1.8906,-1.887 -1.8907,-3.152 -1.8906,-6.297 -1.8867,-8.82 v -6.93 l 0.6289,-5.668 0.6289,-3.777 0.6289,-2.52 0.6328,-1.8906 1.2578,-1.2617 1.2618,-1.8907 2.5195,-3.7773 3.1484,-4.4102 4.4102,-5.6679 8.1875,-7.5586 5.039,-3.7813 2.5196,-1.2578 3.1484,-0.6289 5.6719,-1.8906 10.0781,-3.1485 10.0781,-1.8906 5.668,-0.6328 3.1484,0.6328 3.1524,0.6289 4.4062,0.6289 5.6719,0.6328 h 0.6289 1.2578 l 0.6328,0.6289 h 0.6289 l 0.629,0.629 h 0.6289 v 0.6289 0.6328 h -0.6289 v 0.6289 h -0.629 v 0.6289 h -0.6289 v 0.6289 H 97.1406 V 66.25 h -0.6289 -0.6289 l -0.6289,-0.6328 -1.2617,-1.2578 -1.8906,-1.2617 -1.8868,-0.6289 -1.8906,-0.629 -1.8906,-1.2617 -1.2578,-1.2578 -0.6328,-1.8906 1.2617,-3.7813 3.7773,-5.039 2.5196,-2.5196 1.2617,-1.8867 1.8906,-1.2617 5.6681,-3.1484 10.707,-5.668 10.078,-4.4102 7.559,-3.1484 4.41,-1.8906 3.148,-1.2617 3.153,-1.2578 5.039,-1.2618 8.816,-2.5195 11.34,-2.5195 11.336,-1.8907 6.93,-0.6289 h 4.41 l 1.89,0.6289 h 1.258 l 3.781,0.6329 5.668,0.6289 8.821,0.6289 10.078,1.2617 4.41,1.2578 0.629,0.6289 1.258,0.6328 3.152,1.2578 7.559,1.8907 7.558,1.2578 3.778,1.2617 1.89,0.6289 1.258,0.6328 h 3.781 5.039 l 4.41,-1.2617 0.629,-0.6289 -0.629,-0.6328 0.629,-1.2578 4.41,-3.7813 5.04,-3.7773 2.519,-2.5196 0.629,-1.2617 1.262,-1.2578 4.406,-2.51953 10.082,-3.14844 9.445,-1.89062 7.559,-1.26172 4.41,-0.628909 h 3.148 2.52 5.039 8.82 12.598 L 359.18,1.36719 367.371,2 h 4.406 l 1.891,0.62891 h 1.891 l 4.41,0.6289 8.187,1.89063 11.969,3.14844 11.969,3.78122 8.816,3.1485 5.039,1.8906 3.149,1.8867 2.519,1.8906 4.41,1.8907 6.301,3.1484 7.559,4.4102 5.039,3.1484 2.519,1.8906 1.258,1.2617 v 0.6289 h -0.629 -0.629 -0.629 v 1.2579 l 0.629,1.2617 0.629,1.8906 0.629,3.1484 -0.629,1.8907 -1.258,0.6289 -0.632,1.2578 1.89,1.2617 h 3.149 l 1.89,-1.2617 1.891,-0.6289 2.519,-1.2578 5.04,-1.2618 5.039,-0.6289 h 0.628 l -0.628,0.6289 h 1.89 8.817 8.191 6.297 l 4.41,-0.6289 3.781,-0.6289 3.149,-0.6328 h 4.41 l 7.558,0.6328 9.446,1.2578 10.711,2.5196 4.41,1.2617 v 0.6289 l 4.406,3.1484 11.34,7.5586 8.187,5.6719 7.559,5.0391 5.672,3.7773 4.406,2.5195 3.781,1.2618 3.778,1.8867 3.781,3.1523 5.039,3.7774 5.668,6.3007 5.039,7.5582 3.152,7.559 1.258,5.668 v 3.781 l -0.629,2.52 -0.629,1.258 -1.261,1.261 -1.891,1.887 -1.887,3.781 -3.152,4.41 -3.777,6.297 -5.672,6.93 -5.039,3.781 -2.52,1.887 -1.886,0.633 -1.891,0.629 -3.781,1.258 -6.297,3.152 -9.449,3.777 -10.079,3.149 -6.929,2.523 -4.41,0.629 h -2.52 l -2.519,0.629 h -4.407 l -6.3,1.262 -8.821,1.257 -9.445,0.629 h -5.039 l -2.52,-0.629 -1.261,-1.257 h -2.52 l -2.519,1.257 1.257,2.52 3.782,1.891 3.781,1.257 4.406,2.52 3.152,3.781 0.629,3.149 -0.629,1.261 h -1.261 -1.258 l -1.891,1.258 -3.148,3.781 -3.781,4.407 -1.258,3.152 -0.633,1.258 -0.629,1.262 -2.519,3.148 -6.301,5.668 -7.559,5.672 -3.777,2.519 -1.262,1.258 -1.887,1.262 -5.672,2.519 -11.335,5.039 -10.079,3.778 -7.558,2.519 -4.41,1.891 -2.52,0.629 -2.519,0.633 -5.039,1.257 -8.192,1.891 -11.336,2.52 -11.34,1.89 -6.929,1.258 -3.778,0.629 h -1.261 -1.258 -3.149 l -6.929,0.633 H 369.891 359.18 l -7.559,-0.633 h -4.41 -2.52 l -2.519,-0.629 -3.777,-0.629 -6.301,-0.629 -8.188,-1.261 -8.187,-1.891 -3.153,-1.258 h -0.628 v -0.629 l -1.258,-1.262 -3.782,-2.519 -3.148,-2.52 -0.629,-1.89 0.629,-1.258 -0.629,-1.262 -3.152,-1.258 h -4.406 -1.891 l -0.629,0.629 -2.523,1.258 -6.297,1.891 -6.301,1.89 -3.777,1.258 -1.262,1.262 -1.258,1.262 -4.41,1.257 -7.559,1.262 -7.558,0.629 h -3.782 -1.257 l -4.411,-0.629 -10.707,-0.633 -9.449,-0.629 h -7.558 l -4.411,-0.628 h -1.89 -2.52 -5.039 l -8.187,-0.629 -12.598,-1.891 -12.598,-1.891 -8.82,-1.261 -5.039,-1.258 -3.148,-0.629 h -3.149 l -5.039,-1.262 -7.558,-1.89 -9.45,-3.149 -10.078,-3.777 -4.41,-2.52 -0.629,-0.632 -0.633,-0.629 -1.886,-2.52 -5.039,-5.039 -3.7817,-5.039 -2.5196,-3.781 -0.6289,-1.258 -0.6289,-1.891 -0.6328,-3.148 0.6328,-4.41 2.5195,-4.41 3.7776,-1.258 h 3.148 l 3.781,-0.629 2.52,-1.891 v -0.629 H 111.629 111 v 0.629 h -0.629 l -0.633,0.629 h -0.629 -0.629 -1.261 l -1.258,-0.629 h -1.262"
         style="fill:#cccccc;fill-opacity:1;fill-rule:evenodd;stroke:none"
         id="path26"
         inkscape:connector-curvature="0" /><path
         d="m 839.793,183.41 -6.926,-0.629 h -4.41 l -3.152,0.629 h -2.52 l -5.668,-1.262 -10.078,-3.148 -7.559,-3.777 -5.667,-2.52 -3.153,-1.89 -1.258,-1.262 -1.89,-0.629 -2.52,-2.52 -5.039,-4.41 -6.93,-6.929 -6.296,-7.559 -4.411,-5.668 -3.148,-2.52 -1.262,-1.89 -1.89,-1.887 -1.887,-3.152 -1.891,-6.297 -1.89,-8.82 v -6.93 l 0.629,-5.668 0.632,-3.777 0.629,-2.52 0.629,-1.8906 1.262,-1.2617 1.258,-1.8907 2.519,-3.7773 3.153,-4.4102 4.406,-5.6679 8.191,-7.5586 5.039,-3.7813 2.52,-1.2578 3.148,-0.6289 5.668,-1.8906 10.078,-3.1485 10.079,-1.8906 5.671,-0.6328 3.149,0.6328 3.148,0.6289 4.41,0.6289 5.668,0.6328 h 0.633 1.258 l 0.629,0.6289 h 0.633 l 0.629,0.629 h 0.629 v 0.6289 0.6328 h -0.629 v 0.6289 h -0.629 v 0.6289 h -0.633 v 0.6289 h -0.629 V 66.25 h -0.629 -0.629 l -0.633,-0.6328 -1.257,-1.2578 -1.891,-1.2617 -1.891,-0.6289 -1.89,-0.629 -1.887,-1.2617 -1.262,-1.2578 -0.629,-1.8906 1.258,-3.7813 3.781,-5.039 2.52,-2.5196 1.262,-1.8867 1.886,-1.2617 5.672,-3.1484 10.707,-5.668 10.078,-4.4102 7.559,-3.1484 4.41,-1.8906 3.149,-1.2617 3.148,-1.2578 5.039,-1.2618 8.82,-2.5195 11.34,-2.5195 11.336,-1.8907 6.93,-0.6289 h 4.41 l 1.887,0.6289 h 1.261 l 3.782,0.6329 5.668,0.6289 8.816,0.6289 10.078,1.2617 4.41,1.2578 0.629,0.6289 1.262,0.6328 3.148,1.2578 7.559,1.8907 7.559,1.2578 3.781,1.2617 1.891,0.6289 1.257,0.6328 h 3.782 5.039 l 4.409,-1.2617 0.63,-0.6289 -0.63,-0.6328 0.63,-1.2578 4.41,-3.7813 5.04,-3.7773 2.52,-2.5196 0.63,-1.2617 1.26,-1.2578 4.41,-2.51953 10.07,-3.14844 9.45,-1.89062 7.56,-1.26172 4.41,-0.628909 h 3.15 2.52 5.04 8.82 12.6 L 1096.16,1.36719 1104.35,2 h 4.41 l 1.89,0.62891 h 1.89 l 4.41,0.6289 8.19,1.89063 11.97,3.14844 11.96,3.78122 8.82,3.1485 5.04,1.8906 3.15,1.8867 2.52,1.8906 4.41,1.8907 6.3,3.1484 7.56,4.4102 5.04,3.1484 2.52,1.8906 1.26,1.2617 v 0.6289 h -0.63 -0.63 -0.63 v 1.2579 l 0.63,1.2617 0.63,1.8906 0.63,3.1484 -0.63,1.8907 -1.26,0.6289 -0.63,1.2578 1.89,1.2617 h 3.15 l 1.89,-1.2617 1.89,-0.6289 2.52,-1.2578 5.04,-1.2618 5.04,-0.6289 h 0.62 l -0.62,0.6289 h 1.89 8.81 8.19 6.3 l 4.41,-0.6289 3.78,-0.6289 3.15,-0.6328 h 4.41 l 7.56,0.6328 9.45,1.2578 10.7,2.5196 4.41,1.2617 v 0.6289 l 4.41,3.1484 11.34,7.5586 8.19,5.6719 7.56,5.0391 5.67,3.7773 4.41,2.5195 3.78,1.2618 3.78,1.8867 3.78,3.1523 5.04,3.7774 5.66,6.3007 5.04,7.5582 3.15,7.559 1.26,5.668 v 3.781 l -0.63,2.52 -0.63,1.258 -1.26,1.261 -1.89,1.887 -1.89,3.781 -3.15,4.41 -3.78,6.297 -5.67,6.93 -5.03,3.781 -2.52,1.887 -1.89,0.633 -1.89,0.629 -3.78,1.258 -6.3,3.152 -9.45,3.777 -10.08,3.149 -6.93,2.523 -4.41,0.629 h -2.52 l -2.52,0.629 h -4.41 l -6.29,1.262 -8.82,1.257 -9.45,0.629 h -5.04 l -2.52,-0.629 -1.26,-1.257 h -2.52 l -2.52,1.257 1.26,2.52 3.78,1.891 3.78,1.257 4.41,2.52 3.15,3.781 0.63,3.149 -0.63,1.261 h -1.26 -1.26 l -1.89,1.258 -3.15,3.781 -3.78,4.407 -1.26,3.152 -0.63,1.258 -0.63,1.262 -2.52,3.148 -6.3,5.668 -7.56,5.672 -3.77,2.519 -1.27,1.258 -1.89,1.262 -5.67,2.519 -11.33,5.039 -10.08,3.778 -7.56,2.519 -4.41,1.891 -2.52,0.629 -2.52,0.633 -5.04,1.257 -8.19,1.891 -11.33,2.52 -11.34,1.89 -6.93,1.258 -3.78,0.629 h -1.26 -1.26 -3.15 l -6.93,0.633 h -10.71 -10.71 l -7.55,-0.633 h -4.41 -2.52 l -2.52,-0.629 -3.78,-0.629 -6.3,-0.629 -8.19,-1.261 -8.19,-1.891 -3.15,-1.258 h -0.63 v -0.629 l -1.26,-1.262 -3.78,-2.519 -3.15,-2.52 -0.63,-1.89 0.63,-1.258 -0.63,-1.262 -3.15,-1.258 h -4.41 -1.89 l -0.63,0.629 -2.52,1.258 -6.29,1.891 -6.3,1.89 -3.78,1.258 -1.26,1.262 -1.26,1.262 -4.41,1.257 -7.559,1.262 -7.559,0.629 h -3.781 -1.258 l -4.41,-0.629 -10.707,-0.633 -9.449,-0.629 h -7.559 l -4.41,-0.628 h -1.891 -2.519 -5.039 l -8.188,-0.629 -12.598,-1.891 -12.597,-1.891 -8.821,-1.261 -5.039,-1.258 -3.148,-0.629 h -3.152 l -5.039,-1.262 -7.559,-1.89 -9.449,-3.149 -10.078,-3.777 -4.407,-2.52 -0.632,-0.632 -0.629,-0.629 -1.891,-2.52 -5.039,-5.039 -3.777,-5.039 -2.52,-3.781 -0.629,-1.258 -0.633,-1.891 -0.629,-3.148 0.629,-4.41 2.52,-4.41 3.781,-1.258 h 3.149 l 3.781,-0.629 2.519,-1.891 v -0.629 h 0.629 -0.629 v 0.629 h -0.632 l -0.629,0.629 h -0.629 -0.629 -1.262 l -1.258,-0.629 h -1.261"
         style="fill:#cccccc;fill-opacity:1;fill-rule:evenodd;stroke:none"
         id="path28"
         inkscape:connector-curvature="0" /><path
         d="m 1576.78,183.41 -6.93,-0.629 h -4.41 l -3.15,0.629 h -2.52 l -5.67,-1.262 -10.08,-3.148 -7.56,-3.777 -5.67,-2.52 -3.15,-1.89 -1.25,-1.262 -1.89,-0.629 -2.52,-2.52 -5.04,-4.41 -6.93,-6.929 -6.3,-7.559 -4.41,-5.668 -3.15,-2.52 -1.26,-1.89 -1.89,-1.887 -1.89,-3.152 -1.89,-6.297 -1.89,-8.82 v -6.93 l 0.63,-5.668 0.63,-3.777 0.63,-2.52 0.63,-1.8906 1.26,-1.2617 1.26,-1.8907 2.52,-3.7773 3.15,-4.4102 4.41,-5.6679 8.19,-7.5586 5.04,-3.7813 2.52,-1.2578 3.15,-0.6289 5.67,-1.8906 10.07,-3.1485 10.08,-1.8906 5.67,-0.6328 3.15,0.6328 3.15,0.6289 4.41,0.6289 5.67,0.6328 h 0.63 1.26 l 0.63,0.6289 h 0.63 l 0.63,0.629 h 0.63 v 0.6289 0.6328 H 1573 v 0.6289 h -0.63 v 0.6289 h -0.63 v 0.6289 h -0.63 V 66.25 h -0.63 -0.63 l -0.63,-0.6328 -1.26,-1.2578 -1.89,-1.2617 -1.89,-0.6289 -1.89,-0.629 -1.89,-1.2617 -1.26,-1.2578 -0.63,-1.8906 1.26,-3.7813 3.78,-5.039 2.52,-2.5196 1.26,-1.8867 1.89,-1.2617 5.67,-3.1484 10.71,-5.668 10.08,-4.4102 7.55,-3.1484 4.41,-1.8906 3.15,-1.2617 3.15,-1.2578 5.04,-1.2618 8.82,-2.5195 11.34,-2.5195 11.34,-1.8907 6.93,-0.6289 h 4.4 l 1.89,0.6289 h 1.26 l 3.78,0.6329 5.67,0.6289 8.82,0.6289 10.08,1.2617 4.41,1.2578 0.63,0.6289 1.26,0.6328 3.15,1.2578 7.56,1.8907 7.56,1.2578 3.78,1.2617 1.88,0.6289 1.26,0.6328 h 3.78 5.04 l 4.41,-1.2617 0.63,-0.6289 -0.63,-0.6328 0.63,-1.2578 4.41,-3.7813 5.04,-3.7773 2.52,-2.5196 0.63,-1.2617 1.26,-1.2578 4.41,-2.51953 10.08,-3.14844 9.45,-1.89062 7.56,-1.26172 4.41,-0.628909 h 3.14 2.52 5.04 8.82 12.6 L 1833.15,1.36719 1841.34,2 h 4.41 l 1.88,0.62891 h 1.89 l 4.41,0.6289 8.19,1.89063 11.97,3.14844 11.97,3.78122 8.82,3.1485 5.04,1.8906 3.15,1.8867 2.52,1.8906 4.41,1.8907 6.29,3.1484 7.56,4.4102 5.04,3.1484 2.52,1.8906 1.26,1.2617 v 0.6289 h -0.63 -0.63 -0.63 v 1.2579 l 0.63,1.2617 0.63,1.8906 0.63,3.1484 -0.63,1.8907 -1.26,0.6289 -0.63,1.2578 1.89,1.2617 h 3.15 l 1.89,-1.2617 1.89,-0.6289 2.52,-1.2578 5.04,-1.2618 5.04,-0.6289 h 0.63 l -0.63,0.6289 h 1.89 8.82 8.18 6.31 l 4.4,-0.6289 3.78,-0.6289 3.15,-0.6328 h 4.41 l 7.56,0.6328 9.45,1.2578 10.71,2.5196 4.41,1.2617 v 0.6289 l 4.41,3.1484 11.33,7.5586 8.19,5.6719 7.56,5.0391 5.67,3.7773 4.41,2.5195 3.78,1.2618 3.78,1.8867 3.78,3.1523 5.04,3.7774 5.67,6.3007 5.04,7.5582 3.15,7.559 1.25,5.668 v 3.781 l -0.63,2.52 -0.62,1.258 -1.27,1.261 -1.88,1.887 -1.89,3.781 -3.15,4.41 -3.78,6.297 -5.67,6.93 -5.04,3.781 -2.52,1.887 -1.89,0.633 -1.89,0.629 -3.78,1.258 -6.3,3.152 -9.45,3.777 -10.08,3.149 -6.93,2.523 -4.4,0.629 h -2.52 l -2.52,0.629 h -4.41 l -6.3,1.262 -8.82,1.257 -9.45,0.629 h -5.04 l -2.52,-0.629 -1.26,-1.257 h -2.52 l -2.52,1.257 1.26,2.52 3.78,1.891 3.78,1.257 4.41,2.52 3.15,3.781 0.63,3.149 -0.63,1.261 h -1.26 -1.26 l -1.89,1.258 -3.15,3.781 -3.78,4.407 -1.26,3.152 -0.63,1.258 -0.63,1.262 -2.52,3.148 -6.29,5.668 -7.56,5.672 -3.78,2.519 -1.26,1.258 -1.89,1.262 -5.67,2.519 -11.34,5.039 -10.08,3.778 -7.56,2.519 -4.41,1.891 -2.52,0.629 -2.52,0.633 -5.04,1.257 -8.18,1.891 -11.34,2.52 -11.34,1.89 -6.93,1.258 -3.78,0.629 h -1.26 -1.26 -3.15 l -6.93,0.633 h -10.7 -10.71 l -7.56,-0.633 h -4.41 -2.52 l -2.52,-0.629 -3.78,-0.629 -6.3,-0.629 -8.19,-1.261 -8.19,-1.891 -3.14,-1.258 h -0.64 v -0.629 l -1.26,-1.262 -3.78,-2.519 -3.15,-2.52 -0.62,-1.89 0.62,-1.258 -0.62,-1.262 -3.15,-1.258 h -4.41 -1.89 l -0.63,0.629 -2.52,1.258 -6.3,1.891 -6.3,1.89 -3.78,1.258 -1.26,1.262 -1.26,1.262 -4.41,1.257 -7.56,1.262 -7.56,0.629 h -3.77 -1.27 l -4.4,-0.629 -10.71,-0.633 -9.45,-0.629 h -7.56 l -4.41,-0.628 h -1.89 -2.52 -5.04 l -8.19,-0.629 -12.6,-1.891 -12.59,-1.891 -8.82,-1.261 -5.04,-1.258 -3.15,-0.629 h -3.15 l -5.04,-1.262 -7.56,-1.89 -9.45,-3.149 -10.07,-3.777 -4.42,-2.52 -0.62,-0.632 -0.63,-0.629 -1.89,-2.52 -5.04,-5.039 -3.78,-5.039 -2.52,-3.781 -0.63,-1.258 -0.63,-1.891 -0.63,-3.148 0.63,-4.41 2.52,-4.41 3.78,-1.258 h 3.15 l 3.78,-0.629 2.51,-1.891 v -0.629 h 0.64 -0.64 v 0.629 h -0.62 l -0.63,0.629 h -0.63 -0.63 -1.26 l -1.26,-0.629 h -1.26"
         style="fill:#cccccc;fill-opacity:1;fill-rule:evenodd;stroke:none"
         id="path30"
         inkscape:connector-curvature="0" /><path
         d="m 1481.66,509.066 h 283.453 V 679.14 H 1481.66 Z"
         style="fill:#ffe1e1;fill-opacity:1;fill-rule:evenodd;stroke:none"
         id="path32"
         inkscape:connector-curvature="0" /><path
         d="m 1481.66,509.066 h 283.453 V 679.14 H 1481.66 Z"
         style="fill:none;stroke:#000000;stroke-width:4.72424984;stroke-linecap:butt;stroke-linejoin:miter;stroke-miterlimit:10;stroke-dasharray:none;stroke-opacity:1"
         id="path34"
         inkscape:connector-curvature="0" /><path
         d="m 1821.81,509.066 h 283.453 V 679.14 H 1821.81 Z"
         style="fill:#87cfff;fill-opacity:1;fill-rule:evenodd;stroke:none"
         id="path36"
         inkscape:connector-curvature="0" /><path
         d="m 1821.81,509.066 h 283.453 V 679.14 H 1821.81 Z"
         style="fill:none;stroke:#000000;stroke-width:4.72424984;stroke-linecap:butt;stroke-linejoin:miter;stroke-miterlimit:10;stroke-dasharray:none;stroke-opacity:1"
         id="path38"
         inkscape:connector-curvature="0" /><path
         d="m 1084.82,509.066 h 283.457 V 679.14 H 1084.82 Z"
         style="fill:#87cfff;fill-opacity:1;fill-rule:evenodd;stroke:none"
         id="path40"
         inkscape:connector-curvature="0" /><path
         d="m 1084.82,509.066 h 283.457 V 679.14 H 1084.82 Z"
         style="fill:none;stroke:#000000;stroke-width:4.72424984;stroke-linecap:butt;stroke-linejoin:miter;stroke-miterlimit:10;stroke-dasharray:none;stroke-opacity:1"
         id="path42"
         inkscape:connector-curvature="0" /><path
         d="m 7.69531,509.066 h 283.457 V 679.14 H 7.69531 Z"
         style="fill:#ffe1e1;fill-opacity:1;fill-rule:evenodd;stroke:none"
         id="path44"
         inkscape:connector-curvature="0" /><path
         d="m 7.69531,509.066 h 283.457 V 679.14 H 7.69531 Z"
         style="fill:none;stroke:#000000;stroke-width:4.72424984;stroke-linecap:butt;stroke-linejoin:miter;stroke-miterlimit:10;stroke-dasharray:none;stroke-opacity:1"
         id="path46"
         inkscape:connector-curvature="0" /><path
         d="m 7.69531,338.996 h 623.602 v 170.07 H 7.69531 Z"
         style="fill:#ffffff;fill-opacity:1;fill-rule:evenodd;stroke:none"
         id="path48"
         inkscape:connector-curvature="0" /><path
         d="m 7.69531,338.996 h 623.602 v 170.07 H 7.69531 Z"
         style="fill:none;stroke:#000000;stroke-width:4.72424984;stroke-linecap:butt;stroke-linejoin:miter;stroke-miterlimit:10;stroke-dasharray:none;stroke-opacity:1"
         id="path50"
         inkscape:connector-curvature="0" /><path
         d="m 744.68,338.996 h 623.602 v 170.07 H 744.68 Z"
         style="fill:#ffffff;fill-opacity:1;fill-rule:evenodd;stroke:none"
         id="path52"
         inkscape:connector-curvature="0" /><path
         d="m 744.68,338.996 h 623.602 v 170.07 H 744.68 Z"
         style="fill:none;stroke:#000000;stroke-width:4.72424984;stroke-linecap:butt;stroke-linejoin:miter;stroke-miterlimit:10;stroke-dasharray:none;stroke-opacity:1"
         id="path54"
         inkscape:connector-curvature="0" /><path
         d="m 1481.66,338.996 h 623.598 v 170.07 H 1481.66 Z"
         style="fill:#ffffff;fill-opacity:1;fill-rule:evenodd;stroke:none"
         id="path56"
         inkscape:connector-curvature="0" /><path
         d="m 1481.66,338.996 h 623.598 v 170.07 H 1481.66 Z"
         style="fill:none;stroke:#000000;stroke-width:4.72424984;stroke-linecap:butt;stroke-linejoin:miter;stroke-miterlimit:10;stroke-dasharray:none;stroke-opacity:1"
         id="path58"
         inkscape:connector-curvature="0" /><g
         id="g60"
         transform="scale(10)"><text
   transform="matrix(1,0,0,-1,9.48203,8.38867)"
   style="font-variant:normal;font-weight:normal;font-size:7.55880022px;font-family:Helvetica;-inkscape-font-specification:Helvetica;writing-mode:lr-tb;fill:#000000;fill-opacity:1;fill-rule:nonzero;stroke:none"
   id="text66"><tspan
     x="0 5.0417194 10.499173 15.956627 18.057974 23.515427 27.718119 31.49752 33.175571 36.954971 41.157665 73.698448 78.740173 84.197624 89.655075 91.756424 97.213875 101.41657 105.19597 106.87402 110.65343 114.85612"
     y="0"
     sodipodi:role="line"
     id="tspan62">SDN DevicesSDN Devices</tspan><tspan
     x="147.397 152.43872 157.89618 163.35362 165.45497 170.91243 175.11511 178.89452 180.57257 184.35197 188.55467"
     y="2.83477"
     sodipodi:role="line"
     id="tspan64">SDN Devices</tspan></text>

</g><path
         d="m 1855.82,238.84 -87.55,47.875 48.5,-47.875 -86.3,-19.527 105.83,-19.528 -115.91,-76.847 96.38,38.425 -38.43,-48.504 86.93,57.954 V 83.8867 l 38.43,86.9263 67.39,-38.426 -38.42,48.504 134.8,-10.078 -125.35,38.421 77.48,68.032 -86.93,-28.977 v 77.477 l -28.97,-68.028 -47.88,68.028 9.45,-68.028 -48.5,57.95"
         style="fill:#d10000;fill-opacity:1;fill-rule:evenodd;stroke:none"
         id="path68"
         inkscape:connector-curvature="0" /><path
         d="m 1855.82,238.84 -87.55,47.875 48.5,-47.875 -86.3,-19.527 105.83,-19.528 -115.91,-76.847 96.38,38.425 -38.43,-48.504 86.93,57.954 V 83.8867 l 38.43,86.9263 67.39,-38.426 -38.42,48.504 134.8,-10.078 -125.35,38.421 77.48,68.032 -86.93,-28.977 v 77.477 l -28.97,-68.028 -47.88,68.028 9.45,-68.028 -48.5,57.95 z"
         style="fill:none;stroke:#ffff00;stroke-width:4.72424984;stroke-linecap:butt;stroke-linejoin:miter;stroke-miterlimit:10;stroke-dasharray:none;stroke-opacity:1"
         id="path70"
         inkscape:connector-curvature="0" /><g
         id="g72"
         transform="scale(10)"><text
   transform="matrix(1,0,0,-1,151.414,56.5758)"
   style="font-variant:normal;font-weight:normal;font-size:7.55880022px;font-family:Helvetica;-inkscape-font-specification:Helvetica;writing-mode:lr-tb;fill:#000000;fill-opacity:1;fill-rule:nonzero;stroke:none"
   id="text78"><tspan
     x="0 5.0417194 9.2444124 13.447105 15.548451 17.649797 34.01445 39.056168 43.258862 47.461555 49.562901 51.664246 -39.683998 -34.642281 -30.439589 -26.236895 -24.135548 -22.034203 -147.397 -142.35529 -138.15259 -133.94989 -131.84854 -129.74721"
     y="0"
     sodipodi:role="line"
     id="tspan74">App. 1App. 2App. 2App. 1</tspan><tspan
     x="-135.8427 -130.38525 -126.18256 -121.97986 -119.87852 -117.36143 -113.15874 -111.48069 -109.80264 -105.59994 -62.144249 -56.686794 -52.484104 -48.28141 -46.180061 -43.662983 -39.460289 -37.782238 -36.104183 -31.901489 11.553824 17.011278 21.21397 25.416664 27.518009 30.035089 34.237782 35.915836 37.593891 41.796585"
     y="17.007"
     sodipodi:role="line"
     id="tspan76">ControllerControllerController</tspan></text>

</g><path
         d="m 407.055,238.211 -7.563,-21.418 41.574,-62.988 100.157,148.656 -13.86,13.859 -86.297,-126.613"
         style="fill:#00b000;fill-opacity:1;fill-rule:evenodd;stroke:none"
         id="path80"
         inkscape:connector-curvature="0" /><path
         d="m 1144.04,238.211 -7.56,-21.418 41.57,-62.988 100.15,148.656 -13.85,13.859 -86.3,-126.613"
         style="fill:#00b000;fill-opacity:1;fill-rule:evenodd;stroke:none"
         id="path82"
         inkscape:connector-curvature="0" /></g></g></svg>